PathFileType	4	(X/Y/Z)	18_2_rein_53_p0_0-676.trc
DataRate	CameraRate	NumFrames	NumMarkers	Units	OrigDataRate	OrigDataStartFrame	OrigNumFrames
60.0	60.0	6	27	m	60.0	507	677
Frame#	Time	RHip			RKnee			RAnkle			RBigToe			RSmallToe			RHeel			LHip			LKnee			LAnkle			LBigToe			LSmallToe			LHeel			Neck			Head			Nose			RShoulder			RElbow			RWrist			RThumb			RIndex			RPinky			LShoulder			LElbow			LWrist			LThumb			LIndex			LPinky			
		X1	Y1	Z1	X2	Y2	Z2	X3	Y3	Z3	X4	Y4	Z4	X5	Y5	Z5	X6	Y6	Z6	X7	Y7	Z7	X8	Y8	Z8	X9	Y9	Z9	X10	Y10	Z10	X11	Y11	Z11	X12	Y12	Z12	X13	Y13	Z13	X14	Y14	Z14	X15	Y15	Z15	X16	Y16	Z16	X17	Y17	Z17	X18	Y18	Z18	X19	Y19	Z19	X20	Y20	Z20	X21	Y21	Z21	X22	Y22	Z22	X23	Y23	Z23	X24	Y24	Z24	X25	Y25	Z25	X26	Y26	Z26	X27	Y27	Z27	
507	8.45	0.2680264245546216	0.4426782523410938	1.2085666253334633	0.23917781019257797	0.511428497659252	1.6301863645134513	0.22624238244019834	0.6240679013434915	2.0323715662113413	0.21637356328174764	0.38241946359859774	2.034296363356808	0.26812393501449816	0.4243714211387188	2.0433702105443032	0.21614423448948494	0.6817337585497378	2.0824866463847505	0.0543120741655921	0.41722728375497925	1.194005322450967	0.046455745998169776	0.5078411326797274	1.619614164527333	0.036754722881145035	0.5719833540480758	2.0310949721068665	0.09080490416118446	0.4196709048991201	2.060979787534889	0.020295865205374172	0.41482480786502574	2.047360259038757	0.04329074773242137	0.6165743957206321	2.065407473108299	0.1839078000844867	0.3372013259693667	0.6947178559115537	0.20115661517216665	0.2767772776816131	0.4730851424032766	0.19236938827694774	0.2448347422045719	0.5855128769210022	0.3282471413441952	0.3247135307359127	0.7637201671344368	0.3076905907995593	0.27740196867454364	1.0211899005811587	0.22664097550334283	0.10788997735451036	1.1868024078984085	0.1326912235637139	0.050148337298013684	1.2451692612100957	0.1331071050617051	0.050867679184100734	1.2567821259296783	0.16836158064350248	0.07991052745952446	1.301045424526193	0.03277925473354104	0.3558548639923345	0.7578062236812276	0.010815946330938436	0.27867134157559453	0.9828625413784938	0.0871789564301915	0.09416240683211727	1.1597346105554154	0.15790872565041464	0.03948474167135597	1.2278005322118757	0.1541838931425543	0.05198898022084633	1.2423564957437134	0.12305637103015565	0.11991212017505444	1.2657884202987262
508	8.466666666666667	0.26802563688934566	0.44270427370735566	1.2088674220372064	0.23925225809833206	0.5114899079678159	1.6301059513288985	0.22644954358917282	0.6194284672870705	2.0214733862954803	0.2122257891666991	0.39662746926784087	2.0413218557243393	0.26808089211223124	0.4244201603625145	2.0432500686755786	0.21620853643753896	0.6818429230656009	2.0818891628103064	0.05837786079602374	0.4178372613167424	1.1938542909117436	0.04656946836148097	0.5078269573906479	1.6198519889707976	0.037927709485815614	0.5705695147388044	2.025994837111634	0.09204317705132993	0.41890363272917386	2.056012575831299	0.010473828845591055	0.42749981377778246	2.0536946158578364	0.04243045478304819	0.6132111969199564	2.0601013318305132	0.18388542430074784	0.3373694220621745	0.6947639638157843	0.20101277270150475	0.27747944783990713	0.4697154932571404	0.19235284534358688	0.2448123288015203	0.5855442188698583	0.33207596699866765	0.3368226455407486	0.7644437875852449	0.30823108729427046	0.27994750641224087	1.025118071003707	0.22343066660030733	0.12211456215901197	1.1940791170844953	0.12769377746974764	0.053191568465685374	1.2464297684059036	0.1286780625983402	0.06983433705453417	1.2735093689925274	0.16785025771541331	0.07963583558726459	1.3092283384183938	0.03263174474616933	0.35577943417052604	0.758009913620497	0.006922922166814389	0.2780322360978046	0.9827012943406468	0.08323208477992454	0.1041948768442513	1.16566776372108	0.15719546150099697	0.06114909865798694	1.2330445966955543	0.15508822814348638	0.054118358249973804	1.2497059506931893	0.12327310999120465	0.12026659437185644	1.2800876934084051
509	8.483333333333333	0.2628614219298826	0.4590573804712574	1.2135612835807805	0.23283842531740967	0.5261563073736609	1.634310913879492	0.22536063375414542	0.6209215899644488	2.026225232399978	0.21225183774755643	0.39630298810834785	2.0414424243459774	0.26822224066968786	0.4235332752339388	2.0430740698290712	0.21615802075843316	0.6816596588559527	2.082018592701713	0.0526258477748345	0.43243572853347595	1.2001011225319713	0.04548400251720516	0.5087208075714925	1.6249867103188735	0.03676823308145083	0.5717744516790184	2.030989559784274	0.09082704567259628	0.41978742645915595	2.0610092172423577	0.015616196788582018	0.4121067981355586	2.046129385277442	0.04330357306272816	0.6161752961851559	2.065253140533426	0.18395240010737696	0.33741865859501746	0.6949412644708817	0.1973189366518561	0.2751513986534012	0.4731628628496391	0.19237776231707188	0.24473665642852419	0.5856095776312693	0.33254885265139106	0.33876421496330245	0.7681153161948434	0.3083651370162325	0.304647516557912	1.0290395135818462	0.22417194419159053	0.1245251060316943	1.1986103870481457	0.1235375972247923	0.06750844789976866	1.254280864919282	0.1257311582136447	0.08048825041089305	1.2921908362347276	0.1665153588285786	0.1059272184223466	1.323826780799419	0.03272754131291884	0.3559345060399969	0.7578650900723555	0.006498854662059126	0.279856742834767	0.9794417294199893	0.08557158499652541	0.11476679373383442	1.168258339550224	0.15417131266787457	0.05378421420287578	1.234968251730079	0.1538106930969397	0.05496651959270561	1.253877525468318	0.1198954455123086	0.11751949033487391	1.2825377755506226
510	8.5	0.26305101553080995	0.45781719906507046	1.2167814793063896	0.2335717209102784	0.5268961684196893	1.626235931376028	0.22640851001724874	0.6193558413660528	2.0212315768667164	0.20999735684306559	0.38111249534998815	2.030453559993657	0.26817859532192917	0.42399341702281546	2.043265404599261	0.21725939595492658	0.6800664570661091	2.0767275954772275	0.04790845560509869	0.4320187714695715	1.2036396017484878	0.04559062144277062	0.5064022644333973	1.610037147192012	0.037157999003969606	0.5673726632910094	2.019727610370955	0.09195138322647975	0.41834287625985206	2.0558526060233597	0.01794159570677648	0.42505335861595395	2.05267675139566	0.042417385406311264	0.6130563521195052	2.0597685789501203	0.17995601030223893	0.35051410640312436	0.6956527416736167	0.19727971091152657	0.2751974817025561	0.4731672450301988	0.1923462873470006	0.24477350728567016	0.5855543657154627	0.3324561584495589	0.3391163015310034	0.7680525478602492	0.3119065632684009	0.291923052661106	1.0271860246973974	0.22445663983587727	0.12587181214119422	1.210308219389986	0.12201768809753402	0.07753216680174586	1.2614497928339707	0.12505144746018435	0.09207010000516364	1.3136682072135986	0.1724291088149045	0.1104295033657883	1.3371989784292608	0.0354875803915252	0.3678430661922834	0.7584501697807225	0.006567735328283771	0.2788885953104845	0.9826756360068539	0.08839448560960585	0.10564087680427355	1.1733110484420675	0.1489619670795284	0.050012556228688804	1.2355403758479981	0.1516875951392697	0.05274813117575573	1.2788678421793838	0.11887804891247863	0.11625013593724551	1.299422418570985
511	8.516666666666667	0.2621439865473938	0.45491239393396465	1.2128432410455028	0.2319441756499214	0.5340092444394506	1.6374846046807099	0.2263283655979487	0.6193443072920293	2.0214178133697978	0.21320444303012862	0.39517228160349205	2.036901551461497	0.26805982851539795	0.4245243587984755	2.043351796075132	0.21614340658934075	0.6816172085145124	2.0822336008906412	0.0479449705185333	0.43158283777476963	1.2037951445842685	0.047012207680845665	0.5103313684628327	1.6106951052064462	0.03597074544042617	0.5686026515458034	2.0246165715668623	0.09078309857565971	0.4197340913755779	2.0609897352560793	0.01489483886317175	0.4091445763029618	2.0407097152757028	0.04244823178457265	0.6131128272788432	2.059779394650399	0.1799088710948972	0.3505335251621214	0.6955622567375113	0.1971529011774545	0.27592294326184785	0.4697823462726052	0.1923477000435248	0.24471590642192392	0.5855269333019787	0.3290241777476193	0.35224484291587643	0.7690129019165828	0.3123687609143952	0.2907597631191099	1.0308417561572478	0.2278549775412139	0.13585232932878233	1.2164564005326242	0.1107671937518328	0.10213955509600428	1.2700068523201806	0.11252642301000797	0.11830467623045889	1.3262716328798125	0.1713476498465361	0.13166751340056224	1.3477281359679507	0.03554777312953724	0.36814646773535825	0.758492364245786	0.0015305133173487814	0.2911597542163923	0.9844892249315146	0.08385356636435166	0.11682842633746497	1.1761893692543253	0.14934914253047152	0.06227248135525735	1.2413771278010812	0.14816411893278916	0.0622481651489993	1.2840160436181887	0.11843416489514924	0.11514368995302447	1.3066020754700818
512	8.533333333333333	0.25410959674731853	0.4405779219752474	1.2098855679411833	0.23267024662425723	0.5303162572052451	1.6191535560147872	0.22635168843740233	0.6192545367964383	2.0214176104370343	0.21329236912155164	0.3955145109560711	2.037186399017953	0.2717087749116594	0.438993228302764	2.0501524973859953	0.21725594797283357	0.6797547797640423	2.0773170160447676	0.04712505683070049	0.42916033238748375	1.1986550627861838	0.04338690239411215	0.5007480111199278	1.5965317473777834	0.03717073520901002	0.5672359953811531	2.019699071433271	0.09078109260695576	0.4198351577772733	2.061084383095612	0.012159722389885051	0.43731213186073314	2.0548005206988464	0.04711276073195824	0.6176306440569049	2.0621428799707724	0.17990623761015503	0.35022949005176784	0.6954779112803914	0.19717123169052278	0.27586749335130073	0.46976796872144416	0.19257331487310622	0.24642590576187615	0.5889197050512832	0.32901306494292154	0.35206002446813334	0.7692050151962214	0.3131915095938938	0.293513372833429	1.0347647986455646	0.22758609470991564	0.13657309180580274	1.2205044094596549	0.13289205786077155	0.08071451956652267	1.2805895100651365	0.1288559237973716	0.12010548247162374	1.3369487530073352	0.17531808905573001	0.12047112574888771	1.347649379917371	0.01693233401235765	0.4168270929451437	0.7778865329755458	-0.0023186442685126547	0.29006905085358764	0.984318726683868	0.08105504139559912	0.10600488787011733	1.1807424361636738	0.1567983304776926	0.05257801315100893	1.240993770849909	0.15666852659774433	0.050109396820276424	1.284075497553538	0.11784752932992029	0.11666703594538436	1.3109432826580816
